####
#
# OBJ File Generated by Meshlab
#
####
# Object cube.obj
#
# Vertices: 8
# Faces: 12
#
####
vn -0.577350 -0.577350 0.577350
v -1.000000 -1.000000 1.000000 1.000000 1.000000 0.000000
vn -0.577350 0.577350 0.577350
v -1.000000 1.000000 1.000000 0.000000 0.000000 1.000000
vn -0.577350 -0.577350 -0.577350
v -1.000000 -1.000000 -1.000000 0.588235 0.588235 0.588235
vn -0.577350 0.577350 -0.577350
v -1.000000 1.000000 -1.000000 0.729412 0.729412 0.380392
vn 0.577350 -0.577350 0.577350
v 1.000000 -1.000000 1.000000 0.333333 1.000000 0.498039
vn 0.577350 0.577350 0.577350
v 1.000000 1.000000 1.000000 1.000000 0.000000 0.000000
vn 0.577350 -0.577350 -0.577350
v 1.000000 -1.000000 -1.000000 0.588235 0.588235 0.588235
vn 0.577350 0.577350 -0.577350
v 1.000000 1.000000 -1.000000 0.588235 0.588235 0.588235
# 8 vertices, 0 vertices normals

f 2//2 3//3 1//1
f 4//4 7//7 3//3
f 8//8 5//5 7//7
f 6//6 1//1 5//5
f 7//7 1//1 3//3
f 4//4 6//6 8//8
f 2//2 4//4 3//3
f 4//4 8//8 7//7
f 8//8 6//6 5//5
f 6//6 2//2 1//1
f 7//7 5//5 1//1
f 4//4 2//2 6//6
# 12 faces, 0 coords texture

# End of File
